# xmcd
#
# Track frame offsets:
# 183
# 14778
# 32975
# 49075
# 68378
# 91103
# 107880
# 127160
# 146080
# 167245
# 186345
#
# Disc length: 2854 seconds
#
#
# Revision: 2
# Processed by: cddbd v1.5.1PL0 Copyright (c) Steve Scherf et al.
# Submitted via: FreeRIP 2.90 
#
DISCID=a00b240b
DTITLE=Megadeth - Countdown to Extinction
DYEAR=1992
DGENRE=Metal
TTITLE0=Skin O' My Teeth
TTITLE1=Symphony of Destruction
TTITLE2=Architecture of Aggression
TTITLE3=Foreclosure of a Dream
TTITLE4=Sweating Bullets
TTITLE5=This Was My Life
TTITLE6=Countdown to Extinction
TTITLE7=High Speed Dirt
TTITLE8=Psychotron
TTITLE9=Captive Honour
TTITLE10=Ashes in Your Mouth
EXTD=
EXTT0=
EXTT1=
EXTT2=
EXTT3=
EXTT4=
EXTT5=
EXTT6=
EXTT7=
EXTT8=
EXTT9=
EXTT10=
PLAYORDER=
